<?xml version="1.0" encoding="UTF-8"?>
<svg width="752pt" height="752pt" version="1.1" viewBox="0 0 752 752" xmlns="http://www.w3.org/2000/svg">
 <g>
  <path d="m752 376c0 134.33-71.664 258.46-188 325.62-116.34 67.168-259.66 67.168-376 0-116.34-67.164-188-191.29-188-325.62s71.664-258.46 188-325.62c116.34-67.168 259.66-67.168 376 0 116.34 67.164 188 191.29 188 325.62" fill="#a8aaad"/>
  <path d="m398.88 171.98c-80.508 0-149.04 64.453-150.64 141.36l-44.566 113.99c-1.625 4.1523-1.207 8.8281 1.1289 12.625 2.3359 3.7969 6.3203 6.2773 10.758 6.6992l35.426 3.3633 13.164 64.027c1.4297 6.9609 7.7812 11.793 14.871 11.316l49.633-3.3594-1.375 43.426c-0.14062 3.8594 1.293 7.6055 3.9727 10.387 2.6797 2.7773 6.375 4.3438 10.234 4.3438l191.38-2.1797c4.0078 0.015625 7.8398-1.6602 10.547-4.6211 2.7031-2.957 4.0352-6.9219 3.6602-10.914l-7.7188-80.414c-1.4531-15.332-1.6602-30.758-0.61719-46.125 0.75781-11.461 2.4609-25.43 4.2148-40.207 5.4922-46.031 11.699-98.125-1.5625-127.54-19.699-55.742-79.512-96.184-142.5-96.184zm112.19 312.94 6.1562 64.879-161.02 1.8477 1.2305-32.723 47.359-8.7617-5.1172-28.133-57.777 10.656-52.379 3.5039-12.973-62.18c-1.2617-6.1016-6.3477-10.672-12.551-11.273l-27.137-2.6055 38.691-98.883c0.64844-1.6406 0.98828-3.3945 0.99609-5.1602 0-62.703 55.977-115.7 122.23-115.7 51.527 0 100.26 32.723 115.89 77.762h-0.003907c0.16797 0.46875 0.35547 0.92578 0.57031 1.3711 10.23 21.926 4.2148 72.316-0.61719 112.86-1.8008 15.156-3.5039 29.457-4.3555 41.676-1.1133 16.949-0.84375 33.957 0.80469 50.863z" fill="#00449e"/>
  <path d="m368.73 399.41 24.52-137.11 27.973 5.0039-24.52 137.11z" fill="#00449e"/>
  <path d="m427.01 297.81 28.082 35.566-28.082 35.566 22.305 17.617 42.008-53.184-42.008-53.184z" fill="#00449e"/>
  <path d="m340.58 280.2-42.008 53.184 42.008 53.184 22.305-17.617-28.082-35.566 28.082-35.566z" fill="#00449e"/>
 </g>
</svg>
